#!OML:ASF F:\VICON\USERDATA\INSTALL\rory3\rory3.ASF
:FULLY-SPECIFIED
:DEGREES
1822
root 0.15396 16.1321 -0.000334701 0.123645 -0.055823 -1.20802
lowerback 10.029 0.240439 -0.723939
upperback 0.246923 0.243248 0.12556
thorax -5.37473 0.139846 0.503641
lowerneck -10.6777 -10.8211 -13.8946
upperneck 35.6792 -14.2626 4.23145
head 15.8169 -7.41602 1.66948
rclavicle -5.96354e-015 2.18663e-015
rhumerus 9.63568 4.15704 -72.916
rradius 34.2547
rwrist 29.4426
rhand -16.2738 12.6352
rfingers 7.12502
rthumb 9.93597 -17.1103
lclavicle -5.96354e-015 2.18663e-015
lhumerus -2.20322 -14.2958 75.1153
lradius 33.9508
lwrist -13.4278
lhand -10.4068 13.8952
lfingers 7.12502
lthumb 15.5919 43.2868
rfemur -1.32521 11.1825 18.6726
rtibia 15.6609
rfoot -10.8796 -11.5273
rtoes -6.99733
lfemur 0.0559012 -11.3358 -15.9194
ltibia 11.8614
lfoot -8.56304 10.3614
ltoes -12.4603
1823
root 0.150491 16.1313 0.00637869 0.172872 -0.070864 -1.31076
lowerback 10.0327 0.250819 -0.707794
upperback 0.247285 0.262746 0.195081
thorax -5.37698 0.149924 0.564279
lowerneck -10.6969 -10.7324 -13.8622
upperneck 35.6672 -14.1141 4.19269
head 15.789 -7.35379 1.67809
rclavicle -9.60378e-015 -1.19271e-015
rhumerus 8.76036 -0.150254 -72.1899
rradius 32.8468
rwrist 30.8753
rhand -16.56 12.4847
rfingers 7.12502
rthumb 9.65988 -17.2738
lclavicle -9.60378e-015 -1.19271e-015
lhumerus -2.705 -10.4039 73.6628
lradius 32.6418
lwrist -14.0027
lhand -10.4596 14.2727
lfingers 7.12502
lthumb 15.541 43.6682
rfemur -1.33298 11.2544 18.8056
rtibia 15.6203
rfoot -10.9163 -11.5703
rtoes -6.78984
lfemur 0.0174029 -11.3225 -15.7777
ltibia 11.8928
lfoot -8.60095 10.351
ltoes -12.0835
1824
root 0.150733 16.1315 0.0202767 0.243632 0.0439797 -1.41455
lowerback 9.91454 0.216166 -0.57359
upperback 0.271933 0.234071 0.217229
thorax -5.28382 0.132333 0.516231
lowerneck -10.7603 -10.649 -13.8129
upperneck 35.6853 -13.99 4.1951
head 15.7918 -7.29311 1.69354
rclavicle -3.10601e-016 2.38542e-015
rhumerus 7.8238 -4.15256 -71.1971
rradius 31.61
rwrist 31.9682
rhand -16.6481 12.1599
rfingers 7.12502
rthumb 9.57493 -17.6025
lclavicle -3.10601e-016 2.38542e-015
lhumerus -3.11649 -5.8778 72.177
lradius 31.2151
lwrist -15.257
lhand -10.4456 14.243
lfingers 7.12502
lthumb 15.5545 43.6374
rfemur -1.31792 11.237 18.9312
rtibia 15.5841
rfoot -10.9524 -11.681
rtoes -6.67574
lfemur -0.020548 -11.4262 -15.6559
ltibia 11.8849
lfoot -8.59981 10.3678
ltoes -12.2983
1825
root 0.15199 16.131 0.0343238 0.310076 0.0861875 -1.37962
lowerback 9.84488 0.213706 -0.557354
upperback 0.28842 0.231641 0.191313
thorax -5.22719 0.130215 0.480574
lowerneck -10.8246 -10.5866 -13.7589
upperneck 35.7203 -13.8847 4.15652
head 15.8011 -7.24483 1.6868
rclavicle 8.49804e-015 0
rhumerus 6.8196 -7.81818 -69.9681
rradius 30.5602
rwrist 32.6
rhand -16.4996 11.5692
rfingers 7.12502
rthumb 9.71813 -18.1866
lclavicle 8.49804e-015 0
lhumerus -3.62444 -1.77847 70.5268
lradius 30.0859
lwrist -16.2392
lhand -10.4909 14.449
lfingers 7.12502
lthumb 15.5109 43.8469
rfemur -1.3223 11.1796 18.886
rtibia 15.5917
rfoot -11.016 -11.7005
rtoes -6.73399
lfemur 0.0178599 -11.4768 -15.7041
ltibia 11.7637
lfoot -8.63529 10.4033
ltoes -12.4895
1826
root 0.153076 16.131 0.048681 0.321116 0.0309914 -1.24174
lowerback 9.83143 0.252547 -0.670133
upperback 0.347057 0.268402 0.147479
thorax -5.159 0.150186 0.49331
lowerneck -10.8998 -10.5542 -13.7183
upperneck 35.7003 -13.8086 4.10118
head 15.7893 -7.21175 1.66889
rclavicle -1.19768e-014 -1.98785e-016
rhumerus 5.74576 -11.1917 -68.5221
rradius 29.6316
rwrist 32.7607
rhand -16.4786 11.2782
rfingers 7.12502
rthumb 9.73844 -18.4766
lclavicle -1.19768e-014 -1.98785e-016
lhumerus -4.21909 1.63986 68.7368
lradius 29.3083
lwrist -16.3979
lhand -10.4568 15.1129
lfingers 7.12502
lthumb 15.5437 44.5082
rfemur -1.28942 11.0765 18.7112
rtibia 15.6191
rfoot -11.1191 -11.5376
rtoes -6.51044
lfemur 0.16965 -11.5214 -15.8884
ltibia 11.605
lfoot -8.68954 10.5142
ltoes -12.4739
1827
root 0.155181 16.1311 0.0656784 0.322752 0.0311375 -0.99402
lowerback 9.78687 0.259915 -0.905671
upperback 0.430239 0.249391 0.0888997
thorax -5.04743 0.145021 0.567858
lowerneck -10.9601 -10.5097 -13.6817
upperneck 35.6272 -13.7186 4.06507
head 15.7481 -7.17138 1.66402
rclavicle -9.31803e-015 -3.97569e-016
rhumerus 4.5716 -14.1328 -66.8859
rradius 28.7996
rwrist 32.5671
rhand -16.6366 10.9754
rfingers 7.12502
rthumb 9.58594 -18.7866
lclavicle -9.31803e-015 -3.97569e-016
lhumerus -4.78233 5.25291 66.8873
lradius 28.4199
lwrist -16.5195
lhand -10.4126 15.0191
lfingers 7.12502
lthumb 15.5863 44.4111
rfemur -1.24598 10.9313 18.4106
rtibia 15.6928
rfoot -11.2627 -11.3484
rtoes -6.36392
lfemur 0.361148 -11.5695 -16.2021
ltibia 11.4102
lfoot -8.65963 10.5539
ltoes -12.2111
1828
root 0.154738 16.1301 0.0786387 0.356719 0.0465163 -0.957478
lowerback 9.79022 0.27865 -0.962589
upperback 0.468333 0.267935 0.0858161
thorax -5.01001 0.155141 0.594172
lowerneck -10.9517 -10.45 -13.6533
upperneck 35.5426 -13.6489 4.12349
head 15.6977 -7.13058 1.70035
rclavicle -3.95085e-015 3.18055e-015
rhumerus 3.32947 -17.3424 -65.1753
rradius 28.0624
rwrist 33.2102
rhand -16.5042 10.5382
rfingers 7.12502
rthumb 9.71374 -19.2178
lclavicle -3.95085e-015 3.18055e-015
lhumerus -5.38007 8.78843 64.9646
lradius 27.5203
lwrist -16.8711
lhand -10.4343 14.4453
lfingers 7.12502
lthumb 15.5654 43.8389
rfemur -1.26525 10.8942 18.3694
rtibia 15.7848
rfoot -11.3507 -11.3293
rtoes -6.59205
lfemur 0.470658 -11.5365 -16.2404
ltibia 11.225
lfoot -8.58469 10.4893
ltoes -12.162
